<?xml version="1.0" encoding="UTF-8"?>
<svg id="_레이어_1" data-name="레이어 1" xmlns="http://www.w3.org/2000/svg" viewBox="0 0 50 40">
  <defs>
    <style>
      .cls-1 {
        fill: #fff;
      }
    </style>
  </defs>
  <path class="cls-1" d="M46.31,22.35H3.66c-1.47,0-2.66-.6-2.66-1.33v-1.05c0-.73,1.19-1.33,2.66-1.33h42.65c1.47,0,2.66.6,2.66,1.33v1.05c0,.73-1.19,1.33-2.66,1.33Z"/>
  <path class="cls-1" d="M46.31,37.15H3.66c-1.47,0-2.66-.6-2.66-1.33v-1.05c0-.73,1.19-1.33,2.66-1.33h42.65c1.47,0,2.66.6,2.66,1.33v1.05c0,.73-1.19,1.33-2.66,1.33Z"/>
  <path class="cls-1" d="M46.31,7.56H3.66c-1.47,0-2.66-.6-2.66-1.33v-1.05c0-.73,1.19-1.33,2.66-1.33h42.65c1.47,0,2.66.6,2.66,1.33v1.05c0,.73-1.19,1.33-2.66,1.33Z"/>
</svg>